<svg viewBox="0 0 512 512" version="1.1" xml:space="preserve" xmlns="http://www.w3.org/2000/svg">
  <style>
    @media (prefers-color-scheme: dark) {
      g { stroke: #dadee5 }
    }
  </style>
  <g fill="none" stroke="#242933" stroke-linecap="round" stroke-linejoin="round" stroke-width="18">
    <path id="icon0" d="m352.46 15.378s-43.433-17.36-84.787 5.2543c-49.7 27.178-51.492 53.035-86.474 86.697-49.358 47.495-64.554 63.322-67.148 94.967 2.5194 37.943 8.3863 58.68 108.06 84.558 55.589 15.814 80.352 17.808 77.154 20.606-23.215 20.313-22.63 19.881-64.694 47.922-21.702 14.467-34.458 16.078-47.024 15.501-16.165-0.74218-24.648-5.5003-52.796-22.874-19.769-12.202-39.152-12.754-39.152-12.754" />
    <path id="icon1" d="m408.73 75.823c-37.634-21.866-49.668-28.741-73.705-31.912-24.022-3.1694-49.697 2.8856-68.614 13.614" />
    <path id="icon2" d="m437.53 113.1s-12.374 4.9238-32.789-2.5734c-12.369-4.5421-19.837-8.7676-41.26-20.657-21.63-12.005-34.851-19.337-79.114-6.9275-35.354 9.9113-57.182 27.112-77.339 45.276-17.194 15.494-28.238 27.555-44.964 45.175-9.8724 10.4-18.594 30.233-13.687 41.642 5.0125 11.653 18.571 22.091 47.46 30.93 35.224 10.778 88.448 24.052 136.16 39.566 20.301 6.6008 36.05 17.864 38.734 31.454 2.6829 13.587-4.8917 22.644-11.727 27.698-37.758 27.917-74.221 57.11-88.02 66.751-17.971 12.556-47.554 22.187-70.3 24.797-21.225 2.4353-34.579 0.25572-52.184-7.7558-18.794-8.5526-22.591-12.277-38.493-18.583-15.754-6.2476-39.574-7.7858-39.574-7.7858" />
    <path id="icon3" d="m464.83 149.8s-23.183 2.9238-41.931 1.6772c-11.021-0.73277-22.571-4.1725-38.816-14.137-14.241-8.7351-18.902-13.316-38.337-20.367-19.621-7.118-34.199-6.275-57.506 2.1565-29.36 10.621-39.928 22.233-59.183 37.858-31.832 25.83-48.471 48.921-48.471 48.921" />
    <path id="icon4" d="m430.5 184.2s-25.026-0.95426-44.737-8.5266c-12.08-4.641-22.032-11.813-35.479-19.953-13.169-7.9708-27.808-10.035-46.261-5.908-18.454 4.1273-26.478 10.377-42.585 23.061-19.633 15.46-49.322 44.432-47.449 45.31 17.501 8.209 52.69 17.081 86.729 25.899 28.079 7.2736 61.008 11.176 83.865 31.174 19.987 17.486 21.979 39.218 20.49 55.647-1.007 11.109-9.2965 30.652-32.58 47.641-24.942 18.2-36.828 28.533-55.923 47.52-24.18 24.044-44.921 50.824-69.052 64.087-24.128 13.261-36.459 12.829-53.194 12.848-16.736 0.019-32.032-5.2011-32.032-5.2011" />
    <path id="icon5" d="m330.79 325.22c-28.176 23.459-43.457 33.699-72.007 53.201-15.583 10.644-35.505 21.589-56.42 24.398-18.38 2.4684-39.743-0.15627-57.267-10.674-19.59-11.758-31.299-18.669-56.25-24.737-23.907-5.8134-41.679-2.2026-41.679-2.2026" />
    <path id="icon6" d="m238.52 459.49s-16.458 8.4258-39.806 9.2632c-21.46 0.76963-31.961 1.0641-53.733-8.0446-24.235-10.139-40.761-19.309-40.761-19.309" />
  </g>
</svg>
